<mxfile host="65bd71144e">
    <diagram id="7tJtGsENG3fkMH0FtlQe" name="PÃ¡gina-1">
        <mxGraphModel dx="662" dy="474" grid="1" gridSize="10" guides="1" tooltips="1" connect="1" arrows="1" fold="1" page="1" pageScale="1" pageWidth="827" pageHeight="1169" math="0" shadow="0">
            <root>
                <mxCell id="0"/>
                <mxCell id="1" parent="0"/>
                <object label="" entidad="Empleados" id="2">
                    <mxCell style="whiteSpace=wrap;html=1;aspect=fixed;metaEdit=1;" vertex="1" parent="1">
                        <mxGeometry x="50" y="50" width="80" height="80" as="geometry"/>
                    </mxCell>
                </object>
                <mxCell id="3" value="" style="whiteSpace=wrap;html=1;aspect=fixed;" vertex="1" parent="1">
                    <mxGeometry x="300" y="210" width="80" height="80" as="geometry"/>
                </mxCell>
            </root>
        </mxGraphModel>
    </diagram>
</mxfile>